<svg width="20" height="20" viewBox="0 0 20 20" fill="none" xmlns="http://www.w3.org/2000/svg">
<path d="M18.35 15C18.35 15.4583 17.975 15.8333 17.5166 15.8333C17.5083 15.8333 17.5083 15.8333 17.5 15.8333H15.8333V17.5C15.8333 17.8333 15.6333 18.1417 15.3166 18.2667C15.2166 18.3167 15.1083 18.3333 15 18.3333C14.7833 18.3333 14.5666 18.25 14.4083 18.0917L9.99996 13.6833L5.59163 18.0917C5.43329 18.25 5.21663 18.3333 4.99996 18.3333C4.89163 18.3333 4.78329 18.3167 4.68329 18.2667C4.36663 18.1417 4.16663 17.8333 4.16663 17.5V15.8333H2.49996C2.04163 15.8333 1.66663 15.4583 1.66663 15C1.66663 14.5417 1.66663 14.5167 5.85829 10.4167C6.19163 10.0917 6.71663 10.1 7.03329 10.425C7.82496 11.225 8.87496 11.6667 9.99996 11.6667C11.125 11.6667 12.175 11.225 12.9666 10.425C13.2833 10.1 13.8166 10.0917 14.1416 10.4167C16.675 12.8917 17.675 13.8833 18.075 14.3833C18.2416 14.5333 18.35 14.75 18.35 15Z" fill="#08527A"/>
<path d="M15.8333 7.5C15.8333 9.04166 15.2333 10.5 14.15 11.5917C13.05 12.7167 11.575 13.3333 9.99996 13.3333C8.42496 13.3333 6.94996 12.7167 5.84996 11.5917C4.76663 10.5 4.16663 9.04166 4.16663 7.5C4.16663 4.28333 6.78329 1.66666 9.99996 1.66666C13.2166 1.66666 15.8333 4.28333 15.8333 7.5Z" fill="#CD7F32"/>
<path d="M9.771 10.0752C9.54997 10.0752 9.31755 10.0444 9.07373 9.98291C8.83219 9.91911 8.62256 9.84277 8.44482 9.75391V8.80371L8.97803 8.7627L9.16602 9.45312C9.23893 9.48047 9.33577 9.50667 9.45654 9.53174C9.57731 9.55452 9.69922 9.56592 9.82227 9.56592C10.0387 9.56592 10.2085 9.48958 10.3315 9.33691C10.4546 9.18197 10.5161 8.96094 10.5161 8.67383C10.5161 8.39128 10.4455 8.17367 10.3042 8.021C10.1629 7.86605 9.97949 7.78857 9.75391 7.78857H9.3335V7.2793H9.71973C9.93164 7.2793 10.09 7.21208 10.1948 7.07764C10.2996 6.94092 10.3521 6.74495 10.3521 6.48975C10.3521 6.26644 10.3019 6.09782 10.2017 5.98389C10.1014 5.86768 9.95101 5.80957 9.75049 5.80957C9.67074 5.80957 9.5887 5.81641 9.50439 5.83008C9.42008 5.84147 9.33805 5.8597 9.2583 5.88477L9.06689 6.57861L8.53711 6.5376V5.55322C8.72168 5.48258 8.93359 5.42334 9.17285 5.37549C9.41211 5.32536 9.64567 5.30029 9.87354 5.30029C10.3521 5.30029 10.7223 5.39714 10.9844 5.59082C11.2464 5.78223 11.3774 6.05452 11.3774 6.40771C11.3774 6.64242 11.3148 6.85433 11.1895 7.04346C11.0664 7.23258 10.875 7.38298 10.6152 7.49463C10.8864 7.56982 11.1074 7.70882 11.2783 7.91162C11.4515 8.11214 11.5381 8.34684 11.5381 8.61572C11.5381 9.08057 11.3763 9.44059 11.0527 9.6958C10.7292 9.94873 10.3019 10.0752 9.771 10.0752Z" fill="black"/>
</svg>
