<svg width="200" height="200" viewBox="0 0 200 200" fill="none" xmlns="http://www.w3.org/2000/svg">
<path d="M4.16666 76.75L93.5833 184C94.3654 184.936 95.3436 185.69 96.4488 186.206C97.5539 186.723 98.7591 186.991 99.9792 186.991C101.199 186.991 102.404 186.723 103.51 186.206C104.615 185.69 105.593 184.936 106.375 184L195.833 76.75H4.16666Z" fill="#299ACC"/>
<path d="M152.5 14.25H47.5C44.4821 14.2465 41.5198 15.0624 38.9294 16.6108C36.339 18.1592 34.2176 20.3819 32.7917 23.0417L4.16666 76.75H195.833L167.208 23.0417C165.782 20.3819 163.661 18.1592 161.071 16.6108C158.48 15.0624 155.518 14.2465 152.5 14.25Z" fill="#38B1E7"/>
<path d="M92 180.75L62.5 76.75H137.5L108 180.917C107.477 182.643 106.409 184.152 104.955 185.22C103.501 186.287 101.741 186.853 99.9375 186.834C98.1342 186.816 96.3857 186.212 94.9545 185.115C93.5233 184.018 92.4866 182.486 92 180.75Z" fill="#61C0EA"/>
<path d="M137.5 76.75H62.5L58.3333 14.25H141.667L137.5 76.75Z" fill="#89D0EF"/>
</svg>
