<svg width="30" height="30" viewBox="0 0 30 30" fill="none" xmlns="http://www.w3.org/2000/svg">
<path d="M9 15C11.9016 15 14.25 12.6516 14.25 9.75C14.25 6.84844 11.9016 4.5 9 4.5C6.09844 4.5 3.75 6.84844 3.75 9.75C3.75 12.6516 6.09844 15 9 15ZM12.6 16.5H12.2109C11.2359 16.9688 10.1531 17.25 9 17.25C7.84688 17.25 6.76875 16.9688 5.78906 16.5H5.4C2.41875 16.5 0 18.9188 0 21.9V23.25C0 24.4922 1.00781 25.5 2.25 25.5H15.75C16.9922 25.5 18 24.4922 18 23.25V21.9C18 18.9188 15.5812 16.5 12.6 16.5ZM22.5 15C24.9844 15 27 12.9844 27 10.5C27 8.01562 24.9844 6 22.5 6C20.0156 6 18 8.01562 18 10.5C18 12.9844 20.0156 15 22.5 15ZM24.75 16.5H24.5719C23.9203 16.725 23.2313 16.875 22.5 16.875C21.7687 16.875 21.0797 16.725 20.4281 16.5H20.25C19.2938 16.5 18.4125 16.7766 17.6391 17.2219C18.7828 18.4547 19.5 20.0906 19.5 21.9V23.7C19.5 23.8031 19.4766 23.9016 19.4719 24H27.75C28.9922 24 30 22.9922 30 21.75C30 18.8484 27.6516 16.5 24.75 16.5Z" fill="#E2F4FD"/>
</svg>
