<svg width="30" height="30" viewBox="0 0 30 30" fill="none" xmlns="http://www.w3.org/2000/svg">
<path d="M27.4999 10.2029V10.2936C27.4999 11.3695 27.4999 11.9075 27.2409 12.3476C26.9819 12.7878 26.5116 13.049 25.5711 13.5715L24.5795 14.1225C25.2627 11.8123 25.4907 9.33018 25.5751 7.20747C25.5786 7.11646 25.5827 7.02432 25.5869 6.93122L25.5897 6.866C26.4039 7.14871 26.8609 7.35948 27.146 7.75511C27.5 8.24616 27.5 8.89842 27.4999 10.2029Z" fill="#E2F4FD"/>
<path d="M2.5 10.2029V10.2936C2.50004 11.3695 2.50005 11.9075 2.75904 12.3476C3.01803 12.7877 3.48829 13.049 4.42881 13.5715L5.42101 14.1227C4.73759 11.8125 4.50959 9.33026 4.42531 7.20745C4.4217 7.11644 4.41763 7.0243 4.41351 6.9312L4.41063 6.86581C3.59626 7.14861 3.13908 7.35939 2.85388 7.75509C2.49995 8.24614 2.49996 8.8984 2.5 10.2029Z" fill="#E2F4FD"/>
<path fill-rule="evenodd" clip-rule="evenodd" d="M20.4714 2.93342C19.0664 2.69636 17.2296 2.5 15.0002 2.5C12.7707 2.5 10.934 2.69636 9.52897 2.93342C8.10556 3.17359 7.39385 3.29367 6.79921 4.02604C6.20456 4.75841 6.23599 5.54997 6.29884 7.13309C6.51461 12.568 7.68745 19.3564 14.0625 19.9571V24.375H12.2747C11.6789 24.375 11.1659 24.7956 11.049 25.3799L10.8125 26.5625H7.5C6.98224 26.5625 6.5625 26.9822 6.5625 27.5C6.5625 28.0177 6.98224 28.4375 7.5 28.4375H22.5C23.0177 28.4375 23.4375 28.0177 23.4375 27.5C23.4375 26.9822 23.0177 26.5625 22.5 26.5625H19.1875L18.951 25.3799C18.8341 24.7956 18.3211 24.375 17.7252 24.375H15.9375V19.9571C22.3129 19.3566 23.4857 12.5681 23.7015 7.13309C23.7644 5.54997 23.7959 4.75841 23.2011 4.02604C22.6065 3.29367 21.8949 3.17359 20.4714 2.93342Z" fill="#E2F4FD"/>
</svg>
