<svg width="20" height="20" viewBox="0 0 20 20" fill="none" xmlns="http://www.w3.org/2000/svg">
<path d="M18.35 15C18.35 15.4583 17.975 15.8333 17.5166 15.8333C17.5083 15.8333 17.5083 15.8333 17.5 15.8333H15.8333V17.5C15.8333 17.8333 15.6333 18.1417 15.3166 18.2667C15.2166 18.3167 15.1083 18.3333 15 18.3333C14.7833 18.3333 14.5666 18.25 14.4083 18.0917L9.99996 13.6833L5.59163 18.0917C5.43329 18.25 5.21663 18.3333 4.99996 18.3333C4.89163 18.3333 4.78329 18.3167 4.68329 18.2667C4.36663 18.1417 4.16663 17.8333 4.16663 17.5V15.8333H2.49996C2.04163 15.8333 1.66663 15.4583 1.66663 15C1.66663 14.5417 1.66663 14.5167 5.85829 10.4167C6.19163 10.0917 6.71663 10.1 7.03329 10.425C7.82496 11.225 8.87496 11.6667 9.99996 11.6667C11.125 11.6667 12.175 11.225 12.9666 10.425C13.2833 10.1 13.8166 10.0917 14.1416 10.4167C16.675 12.8917 17.675 13.8833 18.075 14.3833C18.2416 14.5333 18.35 14.75 18.35 15Z" fill="#08527A"/>
<path d="M15.8333 7.5C15.8333 9.04166 15.2333 10.5 14.15 11.5917C13.05 12.7167 11.575 13.3333 9.99996 13.3333C8.42496 13.3333 6.94996 12.7167 5.84996 11.5917C4.76663 10.5 4.16663 9.04166 4.16663 7.5C4.16663 4.28333 6.78329 1.66666 9.99996 1.66666C13.2166 1.66666 15.8333 4.28333 15.8333 7.5Z" fill="#C0C0C0"/>
<path d="M10.5435 6.44531C10.5435 6.23796 10.4888 6.08073 10.3794 5.97363C10.2723 5.86426 10.1139 5.80957 9.9043 5.80957C9.76986 5.80957 9.64339 5.82096 9.5249 5.84375C9.40869 5.86654 9.30615 5.89502 9.21729 5.9292L9.01221 6.65723L8.46875 6.61963V5.65918C8.71484 5.54525 8.97005 5.45752 9.23438 5.396C9.50098 5.33219 9.7596 5.30029 10.0103 5.30029C10.5002 5.30029 10.8818 5.40169 11.1553 5.60449C11.431 5.80501 11.5688 6.0887 11.5688 6.45557C11.5688 6.6652 11.5107 6.88053 11.3945 7.10156C11.2783 7.32031 11.1234 7.54476 10.9297 7.7749C10.736 8.00505 10.515 8.24089 10.2666 8.48242C10.0182 8.72168 9.76188 8.96549 9.49756 9.21387L9.51123 9.24805H10.7998L11.0801 8.58838L11.6064 8.66699L11.5278 10H8.3457V9.36768C8.66243 9.0555 8.9541 8.76611 9.2207 8.49951C9.48958 8.23291 9.72201 7.98226 9.91797 7.74756C10.1139 7.51058 10.2666 7.28613 10.376 7.07422C10.4876 6.86003 10.5435 6.65039 10.5435 6.44531Z" fill="black"/>
</svg>
