<svg width="30" height="30" viewBox="0 0 30 30" fill="none" xmlns="http://www.w3.org/2000/svg">
<path d="M25 18.5125V25C25 25.663 24.7366 26.2989 24.2678 26.7678C23.7989 27.2366 23.163 27.5 22.5 27.5H7.5C6.83696 27.5 6.20107 27.2366 5.73223 26.7678C5.26339 26.2989 5 25.663 5 25V18.5125C5.50608 18.6691 6.03274 18.7492 6.5625 18.75C7.55592 18.7484 8.52944 18.4714 9.375 17.95C10.2201 18.4723 11.194 18.7489 12.1875 18.7489C13.181 18.7489 14.1549 18.4723 15 17.95C15.8451 18.4723 16.819 18.7489 17.8125 18.7489C18.806 18.7489 19.7799 18.4723 20.625 17.95C21.4706 18.4714 22.4441 18.7484 23.4375 18.75C23.9673 18.7492 24.4939 18.6691 25 18.5125ZM27.2 11.25L25.2125 4.3125C25.0633 3.79088 24.7485 3.33196 24.3155 3.005C23.8826 2.67803 23.355 2.50078 22.8125 2.5H7.1875C6.64497 2.50078 6.11741 2.67803 5.68447 3.005C5.25153 3.33196 4.9367 3.79088 4.7875 4.3125L2.8 11.25C2.60062 11.9621 2.49968 12.6981 2.5 13.4375C2.50127 14.2333 2.73623 15.0111 3.1757 15.6745C3.61517 16.338 4.2398 16.8577 4.97205 17.1692C5.7043 17.4808 6.51192 17.5704 7.29465 17.427C8.07739 17.2836 8.80077 16.9134 9.375 16.3625C10.13 17.0911 11.1383 17.4983 12.1875 17.4983C13.2367 17.4983 14.245 17.0911 15 16.3625C15.755 17.0911 16.7633 17.4983 17.8125 17.4983C18.8617 17.4983 19.87 17.0911 20.625 16.3625C21.1992 16.9134 21.9226 17.2836 22.7053 17.427C23.4881 17.5704 24.2957 17.4808 25.028 17.1692C25.7602 16.8577 26.3848 16.338 26.8243 15.6745C27.2638 15.0111 27.4987 14.2333 27.5 13.4375C27.5003 12.6981 27.3994 11.9621 27.2 11.25Z" fill="#E2F4FD"/>
</svg>
