<svg width="30" height="30" viewBox="0 0 30 30" fill="none" xmlns="http://www.w3.org/2000/svg">
<path fill-rule="evenodd" clip-rule="evenodd" d="M7.83879 2.63939C6.82669 2.7727 6.29072 3.01655 5.90898 3.39055C5.52724 3.76456 5.27835 4.28965 5.14228 5.28125C5.0022 6.30199 5 7.65484 5 9.5946V20.3052C5.48584 19.9726 6.03342 19.7195 6.62374 19.5646C7.28395 19.3912 8.05381 19.3915 9.18204 19.3919H25V9.5946C25 7.65484 24.9977 6.30199 24.8577 5.28124C24.7216 4.28965 24.4727 3.76456 24.091 3.39055C23.7093 3.01655 23.1734 2.7727 22.1613 2.63939C21.1194 2.50215 19.7385 2.5 17.7586 2.5H12.2414C10.2615 2.5 8.88065 2.50215 7.83879 2.63939ZM8.44827 8.24324C8.44827 7.6835 8.91142 7.22972 9.48276 7.22972H20.5172C21.0886 7.22972 21.5518 7.6835 21.5518 8.24324C21.5518 8.80299 21.0886 9.25676 20.5172 9.25676H9.48276C8.91142 9.25676 8.44827 8.80299 8.44827 8.24324ZM9.48276 11.9595C8.91142 11.9595 8.44827 12.4132 8.44827 12.973C8.44827 13.5327 8.91142 13.9865 9.48276 13.9865H16.3793C16.9506 13.9865 17.4137 13.5327 17.4137 12.973C17.4137 12.4132 16.9506 11.9595 16.3793 11.9595H9.48276Z" fill="#E2F4FD"/>
<path d="M10.8621 21.4189H9.34176C7.99243 21.4189 7.52071 21.4276 7.15922 21.5225C6.16706 21.783 5.3761 22.5055 5.0369 23.4448C5.05787 23.9228 5.09073 24.3433 5.14227 24.7188C5.27835 25.7104 5.52723 26.2355 5.90897 26.6095C6.29072 26.9835 6.82668 27.2273 7.83878 27.3606C8.88065 27.4979 10.2615 27.5 12.2414 27.5H17.7586C19.7385 27.5 21.1194 27.4979 22.1612 27.3606C23.1734 27.2273 23.7092 26.9835 24.091 26.6095C24.4727 26.2355 24.7216 25.7104 24.8577 24.7188C24.972 23.886 24.9945 22.8321 24.9989 21.4189H16.3792V25.1771C16.3792 25.5496 16.3792 25.7358 16.2485 25.811C16.1176 25.8863 15.9387 25.803 15.5809 25.6365L13.8674 24.8391C13.7464 24.7828 13.6857 24.7546 13.6207 24.7546C13.5556 24.7546 13.495 24.7828 13.374 24.8391L11.6605 25.6365C11.3027 25.803 11.1237 25.8863 10.9929 25.811C10.8621 25.7358 10.8621 25.5496 10.8621 25.1771V21.4189Z" fill="#E2F4FD"/>
</svg>
